<svg width="30" height="30" viewBox="0 0 30 30" fill="none" xmlns="http://www.w3.org/2000/svg">
<g id="Payment">
<path id="Vector" d="M19.6875 18.75C19.4389 18.75 19.2004 18.8488 19.0246 19.0246C18.8488 19.2004 18.75 19.4389 18.75 19.6875C18.75 19.9361 18.8488 20.1746 19.0246 20.3504C19.2004 20.5262 19.4389 20.625 19.6875 20.625H23.4375C23.6861 20.625 23.9246 20.5262 24.1004 20.3504C24.2762 20.1746 24.375 19.9361 24.375 19.6875C24.375 19.4389 24.2762 19.2004 24.1004 19.0246C23.9246 18.8488 23.6861 18.75 23.4375 18.75H19.6875ZM1.875 10.3125C1.875 9.0693 2.36886 7.87701 3.24794 6.99794C4.12701 6.11886 5.3193 5.625 6.5625 5.625H23.4375C24.6807 5.625 25.873 6.11886 26.7521 6.99794C27.6311 7.87701 28.125 9.0693 28.125 10.3125V19.6875C28.125 20.9307 27.6311 22.123 26.7521 23.0021C25.873 23.8811 24.6807 24.375 23.4375 24.375H6.5625C5.3193 24.375 4.12701 23.8811 3.24794 23.0021C2.36886 22.123 1.875 20.9307 1.875 19.6875V10.3125ZM26.25 11.25V10.3125C26.25 9.56658 25.9537 8.85121 25.4262 8.32376C24.8988 7.79632 24.1834 7.5 23.4375 7.5H6.5625C5.81658 7.5 5.10121 7.79632 4.57376 8.32376C4.04632 8.85121 3.75 9.56658 3.75 10.3125V11.25H26.25ZM3.75 13.125V19.6875C3.75 20.4334 4.04632 21.1488 4.57376 21.6762C5.10121 22.2037 5.81658 22.5 6.5625 22.5H23.4375C24.1834 22.5 24.8988 22.2037 25.4262 21.6762C25.9537 21.1488 26.25 20.4334 26.25 19.6875V13.125H3.75Z" fill="#181B3A"/>
</g>
</svg>
