<svg width="25" height="25" viewBox="0 0 25 25" fill="none" xmlns="http://www.w3.org/2000/svg">
<g id="Layer 2">
<g id="home">
<path id="Vector" d="M21.2194 10.5412L13.5094 2.66115C13.4165 2.56743 13.3059 2.49303 13.184 2.44226C13.0621 2.39149 12.9314 2.36536 12.7994 2.36536C12.6674 2.36536 12.5367 2.39149 12.4149 2.44226C12.293 2.49303 12.1824 2.56743 12.0894 2.66115L4.37943 10.5512C4.19287 10.7392 4.04553 10.9625 3.94596 11.208C3.84639 11.4534 3.79659 11.7163 3.79943 11.9812V20.3612C3.79866 20.8731 3.9942 21.3658 4.34581 21.7379C4.69741 22.1099 5.17829 22.333 5.68943 22.3612H19.9094C20.4206 22.333 20.9015 22.1099 21.2531 21.7379C21.6047 21.3658 21.8002 20.8731 21.7994 20.3612V11.9812C21.8002 11.4441 21.5922 10.9277 21.2194 10.5412ZM10.7994 20.3612V14.3612H14.7994V20.3612H10.7994ZM19.7994 20.3612H16.7994V13.3612C16.7994 13.0959 16.6941 12.8416 16.5065 12.654C16.319 12.4665 16.0646 12.3612 15.7994 12.3612H9.79943C9.53422 12.3612 9.27986 12.4665 9.09233 12.654C8.90479 12.8416 8.79943 13.0959 8.79943 13.3612V20.3612H5.79943V11.9412L12.7994 4.79115L19.7994 11.9812V20.3612Z" fill="#8E8E93"/>
</g>
</g>
</svg>
