<svg width="26" height="25" viewBox="0 0 26 25" fill="none" xmlns="http://www.w3.org/2000/svg">
<g id="Layer 2">
<g id="file-text">
<path id="Vector" d="M15.6443 16.4958H9.38658C9.10997 16.4958 8.84469 16.6021 8.6491 16.7913C8.45351 16.9805 8.34363 17.237 8.34363 17.5046C8.34363 17.7721 8.45351 18.0287 8.6491 18.2178C8.84469 18.407 9.10997 18.5133 9.38658 18.5133H15.6443C15.9209 18.5133 16.1862 18.407 16.3818 18.2178C16.5774 18.0287 16.6872 17.7721 16.6872 17.5046C16.6872 17.237 16.5774 16.9805 16.3818 16.7913C16.1862 16.6021 15.9209 16.4958 15.6443 16.4958Z" fill="black"/>
<path id="Vector_2" d="M9.38658 14.4785H12.5154C12.792 14.4785 13.0573 14.3722 13.2529 14.183C13.4485 13.9939 13.5584 13.7373 13.5584 13.4698C13.5584 13.2022 13.4485 12.9457 13.2529 12.7565C13.0573 12.5673 12.792 12.4611 12.5154 12.4611H9.38658C9.10997 12.4611 8.84469 12.5673 8.6491 12.7565C8.45351 12.9457 8.34363 13.2022 8.34363 13.4698C8.34363 13.7373 8.45351 13.9939 8.6491 14.183C8.84469 14.3722 9.10997 14.4785 9.38658 14.4785Z" fill="black"/>
<path id="Vector_3" d="M20.5878 8.75907L14.9142 2.70683C14.8167 2.60234 14.6976 2.51874 14.5647 2.46141C14.4318 2.40408 14.2879 2.37429 14.1424 2.37396H6.84171C6.49519 2.36996 6.15125 2.43202 5.82953 2.55659C5.5078 2.68116 5.21461 2.86581 4.96667 3.09998C4.71874 3.33415 4.52093 3.61327 4.38453 3.92138C4.24814 4.2295 4.17584 4.56058 4.17175 4.89573V20.0263C4.17584 20.3615 4.24814 20.6926 4.38453 21.0007C4.52093 21.3088 4.71874 21.5879 4.96667 21.8221C5.21461 22.0562 5.5078 22.2409 5.82953 22.3655C6.15125 22.49 6.49519 22.5521 6.84171 22.5481H18.189C18.5356 22.5521 18.8795 22.49 19.2012 22.3655C19.5229 22.2409 19.8161 22.0562 20.0641 21.8221C20.312 21.5879 20.5098 21.3088 20.6462 21.0007C20.7826 20.6926 20.8549 20.3615 20.859 20.0263V9.43491C20.8583 9.18491 20.7617 8.94407 20.5878 8.75907ZM14.6013 5.40008L17.459 8.4262H15.3731C15.2638 8.41982 15.157 8.39247 15.0589 8.34574C14.9607 8.29901 14.8731 8.23383 14.8013 8.15401C14.7294 8.0742 14.6747 7.98134 14.6404 7.88087C14.6061 7.78039 14.5928 7.6743 14.6013 7.5688V5.40008ZM18.189 20.5307H6.84171C6.76909 20.5348 6.69636 20.525 6.62767 20.5018C6.55898 20.4786 6.4957 20.4426 6.44144 20.3958C6.38718 20.3489 6.34302 20.2922 6.31148 20.2288C6.27994 20.1654 6.26165 20.0966 6.25766 20.0263V4.89573C6.26165 4.82548 6.27994 4.75669 6.31148 4.6933C6.34302 4.6299 6.38718 4.57315 6.44144 4.5263C6.4957 4.47944 6.55898 4.4434 6.62767 4.42025C6.69636 4.3971 6.76909 4.38729 6.84171 4.39137H12.5154V7.5688C12.4985 8.31184 12.7863 9.03115 13.3158 9.56974C13.8453 10.1083 14.5736 10.4225 15.3418 10.4436H18.7731V20.0263C18.7691 20.0966 18.7508 20.1654 18.7193 20.2288C18.6877 20.2922 18.6436 20.3489 18.5893 20.3958C18.535 20.4426 18.4718 20.4786 18.4031 20.5018C18.3344 20.525 18.2616 20.5348 18.189 20.5307Z" fill="black"/>
</g>
</g>
</svg>
