<svg width="25" height="25" viewBox="0 0 25 25" fill="none" xmlns="http://www.w3.org/2000/svg">
<g id="Layer 2">
<g id="power">
<path id="Vector" d="M12.5052 13.3252C12.7705 13.3252 13.0248 13.2198 13.2124 13.0323C13.3999 12.8448 13.5052 12.5904 13.5052 12.3252V2.3252C13.5052 2.05998 13.3999 1.80562 13.2124 1.61809C13.0248 1.43055 12.7705 1.3252 12.5052 1.3252C12.24 1.3252 11.9857 1.43055 11.7981 1.61809C11.6106 1.80562 11.5052 2.05998 11.5052 2.3252V12.3252C11.5052 12.5904 11.6106 12.8448 11.7981 13.0323C11.9857 13.2198 12.24 13.3252 12.5052 13.3252Z" fill="#FA5046"/>
<path id="Vector_2" d="M17.0953 3.43509C16.8592 3.31309 16.5844 3.28986 16.3312 3.3705C16.078 3.45114 15.8673 3.62905 15.7453 3.86509C15.6233 4.10113 15.6 4.37597 15.6807 4.62915C15.7613 4.88232 15.9392 5.09309 16.1753 5.21509C17.7687 6.03776 19.0395 7.37195 19.7838 9.00351C20.528 10.6351 20.7025 12.4694 20.2792 14.212C19.8559 15.9546 18.8594 17.5044 17.4496 18.6128C16.0398 19.7211 14.2985 20.3236 12.5053 20.3236C10.712 20.3236 8.97069 19.7211 7.56091 18.6128C6.15113 17.5044 5.15462 15.9546 4.73132 14.212C4.30802 12.4694 4.4825 10.6351 5.22673 9.00351C5.97097 7.37195 7.24181 6.03776 8.83526 5.21509C8.95213 5.15468 9.05597 5.07185 9.14083 4.97131C9.22569 4.87077 9.28992 4.75451 9.32985 4.62915C9.36978 4.50379 9.38463 4.37179 9.37354 4.2407C9.36246 4.1096 9.32566 3.98197 9.26526 3.86509C9.20485 3.74822 9.12201 3.64438 9.02147 3.55952C8.92094 3.47466 8.80467 3.41043 8.67931 3.3705C8.55395 3.33057 8.42196 3.31572 8.29086 3.3268C8.15976 3.33789 8.03213 3.37468 7.91526 3.43509C5.92395 4.46388 4.33599 6.13182 3.40623 8.17124C2.47646 10.2107 2.2588 12.5033 2.78817 14.6813C3.31754 16.8592 4.56324 18.7962 6.32538 20.1813C8.08751 21.5665 10.2639 22.3195 12.5053 22.3195C14.7466 22.3195 16.923 21.5665 18.6851 20.1813C20.4473 18.7962 21.693 16.8592 22.2223 14.6813C22.7517 12.5033 22.5341 10.2107 21.6043 8.17124C20.6745 6.13182 19.0866 4.46388 17.0953 3.43509Z" fill="#FA5046"/>
</g>
</g>
</svg>
