<svg width="22" height="22" viewBox="0 0 22 22" fill="none" xmlns="http://www.w3.org/2000/svg">
<g id="Layer 2">
<g id="person">
<path id="Vector" d="M9.16605 10.0097C9.96812 10.0097 10.7522 9.80262 11.4191 9.41469C12.086 9.02675 12.6058 8.47537 12.9127 7.83026C13.2196 7.18515 13.2999 6.47529 13.1435 5.79044C12.987 5.1056 12.6008 4.47653 12.0336 3.98278C11.4665 3.48904 10.7439 3.15279 9.95721 3.01657C9.17055 2.88035 8.35516 2.95026 7.61414 3.21747C6.87313 3.48469 6.23977 3.9372 5.79417 4.51778C5.34856 5.09836 5.11072 5.78094 5.11072 6.4792C5.11072 7.41554 5.53797 8.31353 6.2985 8.97563C7.05902 9.63772 8.09051 10.0097 9.16605 10.0097ZM9.16605 4.71397C9.56709 4.71397 9.95912 4.8175 10.2926 5.01146C10.626 5.20543 10.8859 5.48112 11.0394 5.80368C11.1928 6.12623 11.233 6.48116 11.1548 6.82359C11.0765 7.16601 10.8834 7.48054 10.5998 7.72742C10.3163 7.97429 9.95496 8.14241 9.56163 8.21052C9.1683 8.27864 8.76061 8.24368 8.3901 8.11007C8.01959 7.97646 7.70291 7.75021 7.48011 7.45992C7.25731 7.16963 7.13839 6.82834 7.13839 6.4792C7.13839 6.01104 7.35201 5.56204 7.73228 5.23099C8.11254 4.89995 8.62828 4.71397 9.16605 4.71397Z" fill="#8E8E93"/>
<path id="Vector_2" d="M9.16605 11.7749C7.28385 11.7749 5.47874 12.4258 4.14783 13.5845C2.81691 14.7432 2.06921 16.3146 2.06921 17.9532C2.06921 18.1873 2.17603 18.4118 2.36616 18.5773C2.55629 18.7429 2.81416 18.8358 3.08305 18.8358C3.35193 18.8358 3.60981 18.7429 3.79994 18.5773C3.99007 18.4118 4.09688 18.1873 4.09688 17.9532C4.09688 16.7828 4.63095 15.6603 5.58161 14.8327C6.53226 14.0051 7.82162 13.5401 9.16605 13.5401C10.5105 13.5401 11.7998 14.0051 12.7505 14.8327C13.7011 15.6603 14.2352 16.7828 14.2352 17.9532C14.2352 18.1873 14.342 18.4118 14.5322 18.5773C14.7223 18.7429 14.9802 18.8358 15.2491 18.8358C15.5179 18.8358 15.7758 18.7429 15.9659 18.5773C16.1561 18.4118 16.2629 18.1873 16.2629 17.9532C16.2629 16.3146 15.5152 14.7432 14.1843 13.5845C12.8534 12.4258 11.0482 11.7749 9.16605 11.7749Z" fill="#8E8E93"/>
</g>
</g>
</svg>
