<svg width="21" height="22" viewBox="0 0 21 22" fill="none" xmlns="http://www.w3.org/2000/svg">
<g id="Group 1000001780">
<path id="Vector" d="M1.48047 1.53174C1.48047 1.12292 1.14905 0.791504 0.740233 0.791504C0.331414 0.791504 0 1.12292 0 1.53174V20.4613C0 20.8626 0.155977 21.2474 0.433618 21.5312C0.71126 21.8149 1.08782 21.9743 1.48047 21.9743H19.97C20.3878 21.9743 20.7265 21.6356 20.7265 21.2178C20.7265 20.8 20.3878 20.4613 19.97 20.4613H11.1035C5.78885 20.4613 1.48047 16.1529 1.48047 10.8383V1.53174Z" fill="black"/>
<path id="Vector_2" d="M20.7264 8.67761C20.7264 7.24674 19.5665 6.08679 18.1356 6.08679H16.3013C15.8835 6.08679 15.5448 6.4255 15.5448 6.84332C15.5448 7.26114 15.8835 7.59985 16.3013 7.59985H16.3316C17.0284 7.59985 17.3813 8.43884 16.894 8.93691L14.2743 11.6142C13.347 12.5619 11.8216 12.561 10.8954 11.6123L9.40824 10.0888C9.33943 10.0179 9.25756 9.96165 9.16736 9.92324C9.07715 9.88483 8.9804 9.86505 8.88268 9.86505C8.78496 9.86505 8.68821 9.88483 8.598 9.92324C8.5078 9.96165 8.42593 10.0179 8.35711 10.0888L3.47078 15.0896C3.1873 15.3797 3.18746 15.8431 3.47114 16.1331C3.76383 16.4322 4.24526 16.4322 4.53795 16.1331L6.44219 14.1869C7.78089 12.8187 9.98316 12.82 11.3203 14.1897L12.0583 14.9458C12.1271 15.0167 12.209 15.0729 12.2992 15.1114C12.3894 15.1498 12.4861 15.1695 12.5838 15.1695C12.6816 15.1695 12.7783 15.1498 12.8685 15.1114C12.9587 15.0729 13.0406 15.0167 13.1094 14.9458L17.8973 10.0466C18.3899 9.54246 19.2459 9.89128 19.2459 10.5962V10.6423C19.2459 11.0511 19.5774 11.3825 19.9862 11.3825C20.395 11.3825 20.7264 11.0511 20.7264 10.6423V8.67761Z" fill="black"/>
</g>
</svg>
