<svg width="24" height="26" viewBox="0 0 24 26" fill="none" xmlns="http://www.w3.org/2000/svg">
<g id="grid">
<path id="Vector" d="M8.8828 3.89453H4.93489C4.41137 3.89453 3.90928 4.10708 3.5391 4.48542C3.16891 4.86376 2.96094 5.37689 2.96094 5.91194V9.94677C2.96094 10.4818 3.16891 10.995 3.5391 11.3733C3.90928 11.7516 4.41137 11.9642 4.93489 11.9642H8.8828C9.40633 11.9642 9.90841 11.7516 10.2786 11.3733C10.6488 10.995 10.8568 10.4818 10.8568 9.94677V5.91194C10.8568 5.37689 10.6488 4.86376 10.2786 4.48542C9.90841 4.10708 9.40633 3.89453 8.8828 3.89453ZM4.93489 9.94677V5.91194H8.8828V9.94677H4.93489Z" fill="#8E8E93"/>
<path id="Vector_2" d="M18.7526 3.89453H14.8046C14.2811 3.89453 13.779 4.10708 13.4088 4.48542C13.0387 4.86376 12.8307 5.37689 12.8307 5.91194V9.94677C12.8307 10.4818 13.0387 10.995 13.4088 11.3733C13.779 11.7516 14.2811 11.9642 14.8046 11.9642H18.7526C19.2761 11.9642 19.7782 11.7516 20.1483 11.3733C20.5185 10.995 20.7265 10.4818 20.7265 9.94677V5.91194C20.7265 5.37689 20.5185 4.86376 20.1483 4.48542C19.7782 4.10708 19.2761 3.89453 18.7526 3.89453ZM14.8046 9.94677V5.91194H18.7526V9.94677H14.8046Z" fill="#8E8E93"/>
<path id="Vector_3" d="M8.8828 13.9817H4.93489C4.41137 13.9817 3.90928 14.1942 3.5391 14.5726C3.16891 14.9509 2.96094 15.4641 2.96094 15.9991V20.0339C2.96094 20.569 3.16891 21.0821 3.5391 21.4605C3.90928 21.8388 4.41137 22.0513 4.93489 22.0513H8.8828C9.40633 22.0513 9.90841 21.8388 10.2786 21.4605C10.6488 21.0821 10.8568 20.569 10.8568 20.0339V15.9991C10.8568 15.4641 10.6488 14.9509 10.2786 14.5726C9.90841 14.1942 9.40633 13.9817 8.8828 13.9817ZM4.93489 20.0339V15.9991H8.8828V20.0339H4.93489Z" fill="#8E8E93"/>
<path id="Vector_4" d="M18.7526 13.9817H14.8046C14.2811 13.9817 13.779 14.1942 13.4088 14.5726C13.0387 14.9509 12.8307 15.4641 12.8307 15.9991V20.0339C12.8307 20.569 13.0387 21.0821 13.4088 21.4605C13.779 21.8388 14.2811 22.0513 14.8046 22.0513H18.7526C19.2761 22.0513 19.7782 21.8388 20.1483 21.4605C20.5185 21.0821 20.7265 20.569 20.7265 20.0339V15.9991C20.7265 15.4641 20.5185 14.9509 20.1483 14.5726C19.7782 14.1942 19.2761 13.9817 18.7526 13.9817ZM14.8046 20.0339V15.9991H18.7526V20.0339H14.8046Z" fill="#8E8E93"/>
</g>
</svg>
