<svg width="1920" height="852" viewBox="0 0 1920 852" fill="none" xmlns="http://www.w3.org/2000/svg">
<path d="M13.6723 740.565H-4V760.587H13.6723V740.565Z" fill="#31323C" fill-opacity="0.5"/>
<path d="M6.12991 698.93H3.51953V740.591H6.12991V698.93Z" fill="#31323C" fill-opacity="0.5"/>
<path d="M6.12991 760.587H3.51953V802.249H6.12991V760.587Z" fill="#31323C" fill-opacity="0.5"/>
<path d="M60.266 750.484H42.5938V795.67H60.266V750.484Z" fill="#31323C" fill-opacity="0.5"/>
<path d="M52.7471 708.823H50.1367V750.485H52.7471V708.823Z" fill="#31323C" fill-opacity="0.5"/>
<path d="M52.7471 795.671H50.1367V837.333H52.7471V795.671Z" fill="#31323C" fill-opacity="0.5"/>
<path d="M106.887 696.634H89.2148V814.258H106.887V696.634Z" fill="#31323C" fill-opacity="0.5"/>
<path d="M99.3409 654.972H96.7305V696.633H99.3409V654.972Z" fill="#31323C" fill-opacity="0.5"/>
<path d="M99.3409 814.258H96.7305V855.919H99.3409V814.258Z" fill="#31323C" fill-opacity="0.5"/>
<path d="M153.512 756.333H135.84V846.365H153.512V756.333Z" fill="#31323C" fill-opacity="0.5"/>
<path d="M145.97 714.671H143.359V756.333H145.97V714.671Z" fill="#31323C" fill-opacity="0.5"/>
<path d="M145.97 846.339H143.359V888.001H145.97V846.339Z" fill="#31323C" fill-opacity="0.5"/>
<path d="M200.106 702.637H182.434V747.822H200.106V702.637Z" fill="#31323C" fill-opacity="0.5"/>
<path d="M192.587 661.001H189.977V702.663H192.587V661.001Z" fill="#31323C" fill-opacity="0.5"/>
<path d="M192.587 747.849H189.977V789.51H192.587V747.849Z" fill="#31323C" fill-opacity="0.5"/>
<path d="M246.727 703.367H229.055V786.873H246.727V703.367Z" fill="#31323C" fill-opacity="0.5"/>
<path d="M239.185 661.706H236.574V703.368H239.185V661.706Z" fill="#31323C" fill-opacity="0.5"/>
<path d="M239.185 786.848H236.574V828.509H239.185V786.848Z" fill="#31323C" fill-opacity="0.5"/>
<path d="M293.348 598.744H275.676V712.165H293.348V598.744Z" fill="#31323C" fill-opacity="0.5"/>
<path d="M285.806 557.082H283.195V598.744H285.806V557.082Z" fill="#31323C" fill-opacity="0.5"/>
<path d="M285.806 712.165H283.195V753.827H285.806V712.165Z" fill="#31323C" fill-opacity="0.5"/>
<path d="M339.969 553.768H322.297V698.931H339.969V553.768Z" fill="#31323C" fill-opacity="0.5"/>
<path d="M332.427 512.105H329.816V553.767H332.427V512.105Z" fill="#31323C" fill-opacity="0.5"/>
<path d="M332.427 698.931H329.816V740.592H332.427V698.931Z" fill="#31323C" fill-opacity="0.5"/>
<path d="M386.563 581.149H368.891V608.715H386.563V581.149Z" fill="#31323C" fill-opacity="0.5"/>
<path d="M379.044 539.488H376.434V581.15H379.044V539.488Z" fill="#31323C" fill-opacity="0.5"/>
<path d="M379.044 608.716H376.434V650.378H379.044V608.716Z" fill="#31323C" fill-opacity="0.5"/>
<path d="M433.188 565.435H415.516V626.178H433.188V565.435Z" fill="#31323C" fill-opacity="0.5"/>
<path d="M425.642 523.773H423.031V565.435H425.642V523.773Z" fill="#31323C" fill-opacity="0.5"/>
<path d="M425.642 626.179H423.031V667.84H425.642V626.179Z" fill="#31323C" fill-opacity="0.5"/>
<path d="M479.809 443.816H462.137V598.951H479.809V443.816Z" fill="#31323C" fill-opacity="0.5"/>
<path d="M472.267 402.155H469.656V443.817H472.267V402.155Z" fill="#31323C" fill-opacity="0.5"/>
<path d="M472.267 598.952H469.656V640.614H472.267V598.952Z" fill="#31323C" fill-opacity="0.5"/>
<path d="M526.403 545.987H508.73V651.708H526.403V545.987Z" fill="#31323C" fill-opacity="0.5"/>
<path d="M518.884 504.352H516.273V546.013H518.884V504.352Z" fill="#31323C" fill-opacity="0.5"/>
<path d="M518.884 651.708H516.273V693.37H518.884V651.708Z" fill="#31323C" fill-opacity="0.5"/>
<path d="M573.024 538.574H555.352V582.403H573.024V538.574Z" fill="#31323C" fill-opacity="0.5"/>
<path d="M565.481 496.912H562.871V538.574H565.481V496.912Z" fill="#31323C" fill-opacity="0.5"/>
<path d="M565.481 582.402H562.871V624.064H565.481V582.402Z" fill="#31323C" fill-opacity="0.5"/>
<path d="M619.645 489.733H601.973V534.24H619.645V489.733Z" fill="#31323C" fill-opacity="0.5"/>
<path d="M612.103 448.072H609.492V489.734H612.103V448.072Z" fill="#31323C" fill-opacity="0.5"/>
<path d="M612.103 534.241H609.492V575.903H612.103V534.241Z" fill="#31323C" fill-opacity="0.5"/>
<path d="M666.266 389.209H648.594V500.568H666.266V389.209Z" fill="#31323C" fill-opacity="0.5"/>
<path d="M658.724 347.547H656.113V389.209H658.724V347.547Z" fill="#31323C" fill-opacity="0.5"/>
<path d="M658.724 500.567H656.113V542.229H658.724V500.567Z" fill="#31323C" fill-opacity="0.5"/>
<path d="M712.864 359.763H695.191V436.038H712.864V359.763Z" fill="#31323C" fill-opacity="0.5"/>
<path d="M705.345 318.127H702.734V359.789H705.345V318.127Z" fill="#31323C" fill-opacity="0.5"/>
<path d="M705.345 436.038H702.734V477.7H705.345V436.038Z" fill="#31323C" fill-opacity="0.5"/>
<path d="M759.485 413.981H741.812V443.818H759.485V413.981Z" fill="#31323C" fill-opacity="0.5"/>
<path d="M751.939 372.319H749.328V413.981H751.939V372.319Z" fill="#31323C" fill-opacity="0.5"/>
<path d="M751.939 443.817H749.328V485.479H751.939V443.817Z" fill="#31323C" fill-opacity="0.5"/>
<path d="M806.106 460.654H788.434V492.788H806.106V460.654Z" fill="#31323C" fill-opacity="0.5"/>
<path d="M798.564 418.992H795.953V460.654H798.564V418.992Z" fill="#31323C" fill-opacity="0.5"/>
<path d="M798.564 492.788H795.953V534.45H798.564V492.788Z" fill="#31323C" fill-opacity="0.5"/>
<path d="M852.704 405.679H835.031V443.373H852.704V405.679Z" fill="#31323C" fill-opacity="0.5"/>
<path d="M845.185 364.018H842.574V405.679H845.185V364.018Z" fill="#31323C" fill-opacity="0.5"/>
<path d="M845.185 443.373H842.574V485.035H845.185V443.373Z" fill="#31323C" fill-opacity="0.5"/>
<path d="M899.325 371.38H881.652V497.801H899.325V371.38Z" fill="#31323C" fill-opacity="0.5"/>
<path d="M891.782 329.744H889.172V371.406H891.782V329.744Z" fill="#31323C" fill-opacity="0.5"/>
<path d="M891.782 497.801H889.172V539.462H891.782V497.801Z" fill="#31323C" fill-opacity="0.5"/>
<path d="M945.942 395.577H928.27V425.544H945.942V395.577Z" fill="#31323C" fill-opacity="0.5"/>
<path d="M938.399 353.916H935.789V395.578H938.399V353.916Z" fill="#31323C" fill-opacity="0.5"/>
<path d="M938.399 425.545H935.789V467.207H938.399V425.545Z" fill="#31323C" fill-opacity="0.5"/>
<path d="M992.567 456.321H974.895V651.708H992.567V456.321Z" fill="#31323C" fill-opacity="0.5"/>
<path d="M985.024 414.659H982.414V456.321H985.024V414.659Z" fill="#31323C" fill-opacity="0.5"/>
<path d="M985.024 651.708H982.414V693.37H985.024V651.708Z" fill="#31323C" fill-opacity="0.5"/>
<path d="M1039.16 519.439H1021.49V552.722H1039.16V519.439Z" fill="#31323C" fill-opacity="0.5"/>
<path d="M1031.64 477.778H1029.03V519.44H1031.64V477.778Z" fill="#31323C" fill-opacity="0.5"/>
<path d="M1031.64 552.696H1029.03V594.358H1031.64V552.696Z" fill="#31323C" fill-opacity="0.5"/>
<path d="M1085.78 445.801H1068.11V562.903H1085.78V445.801Z" fill="#31323C" fill-opacity="0.5"/>
<path d="M1078.24 404.165H1075.62V445.827H1078.24V404.165Z" fill="#31323C" fill-opacity="0.5"/>
<path d="M1078.24 562.902H1075.62V604.564H1078.24V562.902Z" fill="#31323C" fill-opacity="0.5"/>
<path d="M1132.41 397.9H1114.73V492.788H1132.41V397.9Z" fill="#31323C" fill-opacity="0.5"/>
<path d="M1124.86 356.239H1122.25V397.901H1124.86V356.239Z" fill="#31323C" fill-opacity="0.5"/>
<path d="M1124.86 492.788H1122.25V534.45H1124.86V492.788Z" fill="#31323C" fill-opacity="0.5"/>
<path d="M1179 364.802H1161.33V398.424H1179V364.802Z" fill="#31323C" fill-opacity="0.5"/>
<path d="M1171.48 323.166H1168.87V364.828H1171.48V323.166Z" fill="#31323C" fill-opacity="0.5"/>
<path d="M1171.48 398.423H1168.87V440.085H1171.48V398.423Z" fill="#31323C" fill-opacity="0.5"/>
<path d="M1225.62 325.463H1207.95V466.397H1225.62V325.463Z" fill="#31323C" fill-opacity="0.5"/>
<path d="M1218.08 283.827H1215.47V325.489H1218.08V283.827Z" fill="#31323C" fill-opacity="0.5"/>
<path d="M1218.08 466.423H1215.47V508.085H1218.08V466.423Z" fill="#31323C" fill-opacity="0.5"/>
<path d="M1272.24 236.005H1254.57V443.348H1272.24V236.005Z" fill="#31323C" fill-opacity="0.5"/>
<path d="M1264.7 194.369H1262.09V236.031H1264.7V194.369Z" fill="#31323C" fill-opacity="0.5"/>
<path d="M1264.7 443.374H1262.09V485.036H1264.7V443.374Z" fill="#31323C" fill-opacity="0.5"/>
<path d="M1318.66 371.38H1300.98V476.709H1318.66V371.38Z" fill="#31323C" fill-opacity="0.5"/>
<path d="M1311.11 329.744H1308.5V371.406H1311.11V329.744Z" fill="#31323C" fill-opacity="0.5"/>
<path d="M1311.11 476.734H1308.5V518.396H1311.11V476.734Z" fill="#31323C" fill-opacity="0.5"/>
<path d="M1365.46 379.157H1347.79V413.849H1365.46V379.157Z" fill="#31323C" fill-opacity="0.5"/>
<path d="M1357.94 337.496H1355.33V379.158H1357.94V337.496Z" fill="#31323C" fill-opacity="0.5"/>
<path d="M1357.94 413.85H1355.33V455.511H1357.94V413.85Z" fill="#31323C" fill-opacity="0.5"/>
<path d="M1413.2 365.662H1395.53V392.836H1413.2V365.662Z" fill="#31323C" fill-opacity="0.5"/>
<path d="M1405.66 324.001H1403.05V365.663H1405.66V324.001Z" fill="#31323C" fill-opacity="0.5"/>
<path d="M1405.66 392.837H1403.05V434.499H1405.66V392.837Z" fill="#31323C" fill-opacity="0.5"/>
<path d="M1458.7 209.822H1441.03V331.727H1458.7V209.822Z" fill="#31323C" fill-opacity="0.5"/>
<path d="M1451.16 168.161H1448.55V209.823H1451.16V168.161Z" fill="#31323C" fill-opacity="0.5"/>
<path d="M1451.16 331.701H1448.55V373.363H1451.16V331.701Z" fill="#31323C" fill-opacity="0.5"/>
<path d="M1505.3 309.069H1487.62V393.959H1505.3V309.069Z" fill="#31323C" fill-opacity="0.5"/>
<path d="M1497.78 267.434H1495.17V309.095H1497.78V267.434Z" fill="#31323C" fill-opacity="0.5"/>
<path d="M1497.78 393.959H1495.17V435.621H1497.78V393.959Z" fill="#31323C" fill-opacity="0.5"/>
<path d="M1551.92 315.047H1534.25V462.194H1551.92V315.047Z" fill="#31323C" fill-opacity="0.5"/>
<path d="M1544.38 273.386H1541.77V315.047H1544.38V273.386Z" fill="#31323C" fill-opacity="0.5"/>
<path d="M1544.38 462.194H1541.77V503.856H1544.38V462.194Z" fill="#31323C" fill-opacity="0.5"/>
<path d="M1598.54 347.259H1580.87V373.989H1598.54V347.259Z" fill="#31323C" fill-opacity="0.5"/>
<path d="M1591 305.598H1588.39V347.259H1591V305.598Z" fill="#31323C" fill-opacity="0.5"/>
<path d="M1591 373.989H1588.39V415.651H1591V373.989Z" fill="#31323C" fill-opacity="0.5"/>
<path d="M1645.16 197.267H1627.49V304.501H1645.16V197.267Z" fill="#31323C" fill-opacity="0.5"/>
<path d="M1637.62 155.631H1635.01V197.293H1637.62V155.631Z" fill="#31323C" fill-opacity="0.5"/>
<path d="M1637.62 304.501H1635.01V346.163H1637.62V304.501Z" fill="#31323C" fill-opacity="0.5"/>
<path d="M1691.75 258.663H1674.08V284.689H1691.75V258.663Z" fill="#31323C" fill-opacity="0.5"/>
<path d="M1684.24 217.027H1681.62V258.689H1684.24V217.027Z" fill="#31323C" fill-opacity="0.5"/>
<path d="M1684.24 284.688H1681.62V326.35H1684.24V284.688Z" fill="#31323C" fill-opacity="0.5"/>
<path d="M1738.38 247.387H1720.71V393.855H1738.38V247.387Z" fill="#31323C" fill-opacity="0.5"/>
<path d="M1730.83 205.751H1728.22V247.413H1730.83V205.751Z" fill="#31323C" fill-opacity="0.5"/>
<path d="M1730.83 393.855H1728.22V435.517H1730.83V393.855Z" fill="#31323C" fill-opacity="0.5"/>
<path d="M1785 191.288H1767.33V231.853H1785V191.288Z" fill="#31323C" fill-opacity="0.5"/>
<path d="M1777.46 149.627H1774.85V191.289H1777.46V149.627Z" fill="#31323C" fill-opacity="0.5"/>
<path d="M1777.46 231.854H1774.85V273.516H1777.46V231.854Z" fill="#31323C" fill-opacity="0.5"/>
<path d="M1831.59 164.663H1813.92V187.269H1831.59V164.663Z" fill="#31323C" fill-opacity="0.5"/>
<path d="M1824.08 123.027H1821.46V164.689H1824.08V123.027Z" fill="#31323C" fill-opacity="0.5"/>
<path d="M1824.08 187.269H1821.46V228.93H1824.08V187.269Z" fill="#31323C" fill-opacity="0.5"/>
<path d="M1878.22 41.6611H1860.55V160.146H1878.22V41.6611Z" fill="#31323C" fill-opacity="0.5"/>
<path d="M1870.68 0H1868.07V41.6617H1870.68V0Z" fill="#31323C" fill-opacity="0.5"/>
<path d="M1870.68 160.173H1868.07V201.835H1870.68V160.173Z" fill="#31323C" fill-opacity="0.5"/>
<path d="M1924.84 49.4404H1907.16V85.3593H1924.84V49.4404Z" fill="#31323C" fill-opacity="0.5"/>
<path d="M1917.29 7.7793H1914.68V49.441H1917.29V7.7793Z" fill="#31323C" fill-opacity="0.5"/>
<path d="M1917.29 85.3594H1914.68V127.021H1917.29V85.3594Z" fill="#31323C" fill-opacity="0.5"/>
<path d="M690.672 568.435H673V548.413H690.672V568.435Z" fill="#31323C" fill-opacity="0.3"/>
<path d="M683.13 610.07H680.52V568.409H683.13V610.07Z" fill="#31323C" fill-opacity="0.3"/>
<path d="M683.13 548.413H680.52V506.751H683.13V548.413Z" fill="#31323C" fill-opacity="0.3"/>
<path d="M737.266 558.516H719.594V513.33H737.266V558.516Z" fill="#31323C" fill-opacity="0.3"/>
<path d="M729.747 600.177H727.137V558.515H729.747V600.177Z" fill="#31323C" fill-opacity="0.3"/>
<path d="M729.747 513.329H727.137V471.667H729.747V513.329Z" fill="#31323C" fill-opacity="0.3"/>
<path d="M783.887 612.366H766.215V494.742H783.887V612.366Z" fill="#31323C" fill-opacity="0.3"/>
<path d="M776.341 654.028H773.73V612.367H776.341V654.028Z" fill="#31323C" fill-opacity="0.3"/>
<path d="M776.341 494.742H773.73V453.081H776.341V494.742Z" fill="#31323C" fill-opacity="0.3"/>
<path d="M830.512 552.667H812.84V462.635H830.512V552.667Z" fill="#31323C" fill-opacity="0.3"/>
<path d="M822.97 594.329H820.359V552.667H822.97V594.329Z" fill="#31323C" fill-opacity="0.3"/>
<path d="M822.97 462.661H820.359V420.999H822.97V462.661Z" fill="#31323C" fill-opacity="0.3"/>
<path d="M877.106 606.363H859.434V561.178H877.106V606.363Z" fill="#31323C" fill-opacity="0.3"/>
<path d="M869.587 647.999H866.977V606.337H869.587V647.999Z" fill="#31323C" fill-opacity="0.3"/>
<path d="M869.587 561.151H866.977V519.49H869.587V561.151Z" fill="#31323C" fill-opacity="0.3"/>
<path d="M923.727 605.633H906.055V522.127H923.727V605.633Z" fill="#31323C" fill-opacity="0.3"/>
<path d="M916.185 647.294H913.574V605.632H916.185V647.294Z" fill="#31323C" fill-opacity="0.3"/>
<path d="M916.185 522.152H913.574V480.491H916.185V522.152Z" fill="#31323C" fill-opacity="0.3"/>
<path d="M970.348 710.256H952.676V596.835H970.348V710.256Z" fill="#31323C" fill-opacity="0.3"/>
<path d="M962.806 751.918H960.195V710.256H962.806V751.918Z" fill="#31323C" fill-opacity="0.3"/>
<path d="M962.806 596.835H960.195V555.173H962.806V596.835Z" fill="#31323C" fill-opacity="0.3"/>
<path d="M1016.97 755.232H999.297V610.069H1016.97V755.232Z" fill="#31323C" fill-opacity="0.3"/>
<path d="M1009.43 796.895H1006.82V755.233H1009.43V796.895Z" fill="#31323C" fill-opacity="0.3"/>
<path d="M1009.43 610.069H1006.82V568.408H1009.43V610.069Z" fill="#31323C" fill-opacity="0.3"/>
<path d="M1063.56 727.851H1045.89V700.285H1063.56V727.851Z" fill="#31323C" fill-opacity="0.3"/>
<path d="M1056.04 769.512H1053.43V727.85H1056.04V769.512Z" fill="#31323C" fill-opacity="0.3"/>
<path d="M1056.04 700.284H1053.43V658.622H1056.04V700.284Z" fill="#31323C" fill-opacity="0.3"/>
<path d="M1110.19 743.565H1092.52V682.822H1110.19V743.565Z" fill="#31323C" fill-opacity="0.3"/>
<path d="M1102.64 785.227H1100.03V743.565H1102.64V785.227Z" fill="#31323C" fill-opacity="0.3"/>
<path d="M1102.64 682.821H1100.03V641.16H1102.64V682.821Z" fill="#31323C" fill-opacity="0.3"/>
<path d="M1156.81 865.184H1139.14V710.049H1156.81V865.184Z" fill="#31323C" fill-opacity="0.3"/>
<path d="M1149.27 710.048H1146.66V668.386H1149.27V710.048Z" fill="#31323C" fill-opacity="0.3"/>
<path d="M1203.4 763.013H1185.73V657.292H1203.4V763.013Z" fill="#31323C" fill-opacity="0.3"/>
<path d="M1195.88 804.648H1193.27V762.987H1195.88V804.648Z" fill="#31323C" fill-opacity="0.3"/>
<path d="M1195.88 657.292H1193.27V615.63H1195.88V657.292Z" fill="#31323C" fill-opacity="0.3"/>
<path d="M1250.02 770.426H1232.35V726.597H1250.02V770.426Z" fill="#31323C" fill-opacity="0.3"/>
<path d="M1242.48 812.088H1239.87V770.426H1242.48V812.088Z" fill="#31323C" fill-opacity="0.3"/>
<path d="M1242.48 726.598H1239.87V684.936H1242.48V726.598Z" fill="#31323C" fill-opacity="0.3"/>
<path d="M1296.64 819.267H1278.97V774.76H1296.64V819.267Z" fill="#31323C" fill-opacity="0.3"/>
<path d="M1289.1 860.928H1286.49V819.266H1289.1V860.928Z" fill="#31323C" fill-opacity="0.3"/>
<path d="M1289.1 774.759H1286.49V733.097H1289.1V774.759Z" fill="#31323C" fill-opacity="0.3"/>
<path d="M1343.27 919.791H1325.59V808.432H1343.27V919.791Z" fill="#31323C" fill-opacity="0.3"/>
<path d="M1335.72 808.433H1333.11V766.771H1335.72V808.433Z" fill="#31323C" fill-opacity="0.3"/>
<path d="M1382.34 872.962H1379.73V831.3H1382.34V872.962Z" fill="#31323C" fill-opacity="0.3"/>
<path d="M1428.94 865.183H1426.33V823.521H1428.94V865.183Z" fill="#31323C" fill-opacity="0.3"/>
<path d="M1483.11 848.346H1465.43V816.212H1483.11V848.346Z" fill="#31323C" fill-opacity="0.3"/>
<path d="M1475.56 890.008H1472.95V848.346H1475.56V890.008Z" fill="#31323C" fill-opacity="0.3"/>
<path d="M1475.56 816.212H1472.95V774.55H1475.56V816.212Z" fill="#31323C" fill-opacity="0.3"/>
<path d="M1522.18 865.627H1519.57V823.965H1522.18V865.627Z" fill="#31323C" fill-opacity="0.3"/>
<path d="M1576.32 937.62H1558.65V811.199H1576.32V937.62Z" fill="#31323C" fill-opacity="0.3"/>
<path d="M1568.78 811.199H1566.17V769.538H1568.78V811.199Z" fill="#31323C" fill-opacity="0.3"/>
<path d="M1615.4 883.455H1612.79V841.793H1615.4V883.455Z" fill="#31323C" fill-opacity="0.3"/>
<path d="M1669.57 852.679H1651.89V657.292H1669.57V852.679Z" fill="#31323C" fill-opacity="0.3"/>
<path d="M1662.02 657.292H1659.41V615.63H1662.02V657.292Z" fill="#31323C" fill-opacity="0.3"/>
<path d="M1716.16 789.561H1698.49V756.278H1716.16V789.561Z" fill="#31323C" fill-opacity="0.3"/>
<path d="M1708.64 831.222H1706.03V789.56H1708.64V831.222Z" fill="#31323C" fill-opacity="0.3"/>
<path d="M1708.64 756.304H1706.03V714.642H1708.64V756.304Z" fill="#31323C" fill-opacity="0.3"/>
<path d="M1762.78 863.199H1745.11V746.097H1762.78V863.199Z" fill="#31323C" fill-opacity="0.3"/>
<path d="M1755.24 746.098H1752.62V704.436H1755.24V746.098Z" fill="#31323C" fill-opacity="0.3"/>
<path d="M1809.41 911.1H1791.73V816.212H1809.41V911.1Z" fill="#31323C" fill-opacity="0.3"/>
<path d="M1801.86 816.212H1799.25V774.55H1801.86V816.212Z" fill="#31323C" fill-opacity="0.3"/>
<path d="M1902.62 983.537H1884.95V842.603H1902.62V983.537Z" fill="#31323C" fill-opacity="0.3"/>
<path d="M1895.08 842.577H1892.47V800.915H1895.08V842.577Z" fill="#31323C" fill-opacity="0.3"/>
<path d="M4 330.204L98.6308 239.754L259.696 490.728L392.513 382.11L701 596.5L853.648 630.155L1094.63 252.576L1309.49 89.6623L1534.66 189.954L1748.67 20L1930 202.109" stroke="#B7D4FB" stroke-opacity="0.2" stroke-miterlimit="10" stroke-linecap="round" stroke-linejoin="round"/>
</svg>