<svg width="32" height="32" viewBox="0 0 32 32" fill="none" xmlns="http://www.w3.org/2000/svg">
<g id="Google">
<path id="Combined-Shape" fill-rule="evenodd" clip-rule="evenodd" d="M0 15.625C0 6.99555 6.99555 0 15.625 0C24.2544 0 31.25 6.99555 31.25 15.625C31.25 24.2544 24.2544 31.25 15.625 31.25C6.99555 31.25 0 24.2544 0 15.625ZM15.6025 11.4723C16.8721 11.4723 17.7285 12.0215 18.2168 12.4804L20.1249 10.6146C18.953 9.52379 17.428 8.85423 15.6025 8.85423C12.9582 8.85423 10.6744 10.3739 9.56261 12.5857L9.5625 12.5856C9.10425 13.5035 8.84132 14.5341 8.84132 15.625C8.84132 16.7158 9.10425 17.7465 9.5625 18.6643L11.7561 16.9641C11.6134 16.5428 11.5307 16.0914 11.5307 15.625C11.5307 15.1586 11.6134 14.7072 11.7486 14.2859L11.7487 14.2859C12.2971 12.6534 13.8146 11.4723 15.6025 11.4723ZM21.9503 14.3913C22.048 14.8126 22.093 15.2188 22.093 15.7755C22.093 17.8369 21.3568 19.5747 20.0797 20.7558L20.0799 20.7559C18.9605 21.7941 17.428 22.396 15.6025 22.396C12.9582 22.396 10.682 20.8763 9.57016 18.6645L11.7562 16.9643C12.2971 18.5968 13.8146 19.7779 15.6025 19.7779C16.6092 19.7779 17.3754 19.4996 17.9464 19.1009L17.9463 19.1008C18.8477 18.4688 19.2534 17.5284 19.3285 16.904H15.6024V14.3913H21.9503Z" fill="black"/>
</g>
</svg>
