<svg width="32" height="32" viewBox="0 0 32 32" fill="none" xmlns="http://www.w3.org/2000/svg">
<g id="Instagram">
<path id="Combined-Shape" fill-rule="evenodd" clip-rule="evenodd" d="M15.625 0C6.99555 0 0 6.99555 0 15.625C0 24.2544 6.99555 31.25 15.625 31.25C24.2544 31.25 31.25 24.2544 31.25 15.625C31.25 6.99555 24.2544 0 15.625 0ZM12.1896 7.34214C13.0785 7.30169 13.3625 7.29179 15.6258 7.29179H15.6232C17.8871 7.29179 18.1701 7.30169 19.059 7.34214C19.9461 7.38277 20.552 7.52322 21.0833 7.7293C21.6319 7.94197 22.0954 8.2267 22.559 8.69025C23.0225 9.15344 23.3073 9.61838 23.5208 10.1665C23.7257 10.6963 23.8663 11.3019 23.908 12.1891C23.9479 13.078 23.9583 13.362 23.9583 15.6252C23.9583 17.8884 23.9479 18.1718 23.908 19.0607C23.8663 19.9475 23.7257 20.5532 23.5208 21.0833C23.3073 21.6312 23.0225 22.0961 22.559 22.5593C22.096 23.0229 21.6317 23.3083 21.0838 23.5211C20.5536 23.7272 19.9473 23.8677 19.0602 23.9083C18.1713 23.9487 17.8881 23.9586 15.6247 23.9586C13.3617 23.9586 13.0778 23.9487 12.1889 23.9083C11.3019 23.8677 10.6962 23.7272 10.166 23.5211C9.61823 23.3083 9.15329 23.0229 8.69027 22.5593C8.22689 22.0961 7.94217 21.6312 7.72915 21.0831C7.52324 20.5532 7.38279 19.9477 7.34199 19.0605C7.30171 18.1716 7.29164 17.8884 7.29164 15.6252C7.29164 13.362 7.30206 13.0778 7.34182 12.1889C7.38175 11.3021 7.52237 10.6963 7.72897 10.1663C7.94252 9.61838 8.22724 9.15344 8.69079 8.69025C9.15399 8.22687 9.61892 7.94215 10.167 7.7293C10.6969 7.52322 11.3024 7.38277 12.1896 7.34214Z" fill="black"/>
<path id="Combined-Shape_2" fill-rule="evenodd" clip-rule="evenodd" d="M14.8783 8.7931C15.0234 8.79287 15.1796 8.79294 15.3481 8.79302L15.6259 8.7931C17.8509 8.7931 18.1146 8.80109 18.9933 8.84102C19.8058 8.87817 20.2467 9.01393 20.5405 9.128C20.9294 9.27904 21.2066 9.4596 21.4981 9.75127C21.7898 10.0429 21.9704 10.3207 22.1218 10.7096C22.2358 11.003 22.3718 11.444 22.4087 12.2565C22.4487 13.135 22.4574 13.3989 22.4574 15.6229C22.4574 17.8468 22.4487 18.1107 22.4087 18.9892C22.3716 19.8017 22.2358 20.2427 22.1218 20.5361C21.9707 20.925 21.7898 21.2019 21.4981 21.4934C21.2065 21.7851 20.9296 21.9656 20.5405 22.1167C20.2471 22.2313 19.8058 22.3667 18.9933 22.4038C18.1148 22.4438 17.8509 22.4524 15.6259 22.4524C13.4007 22.4524 13.1369 22.4438 12.2585 22.4038C11.446 22.3663 11.005 22.2306 10.711 22.1165C10.3222 21.9655 10.0444 21.7849 9.75271 21.4932C9.46104 21.2016 9.28048 20.9245 9.12909 20.5354C9.01503 20.242 8.87909 19.801 8.84211 18.9885C8.80218 18.11 8.79419 17.8461 8.79419 15.6208C8.79419 13.3954 8.80218 13.1329 8.84211 12.2544C8.87926 11.4419 9.01503 11.0009 9.12909 10.7072C9.28013 10.3183 9.46104 10.0405 9.75271 9.74884C10.0444 9.45717 10.3222 9.27661 10.711 9.12522C11.0048 9.01064 11.446 8.87522 12.2585 8.83789C13.0272 8.80317 13.3251 8.79275 14.8783 8.79102V8.7931ZM20.0741 10.1768C19.522 10.1768 19.0741 10.6242 19.0741 11.1765C19.0741 11.7286 19.522 12.1765 20.0741 12.1765C20.6262 12.1765 21.0741 11.7286 21.0741 11.1765C21.0741 10.6244 20.6262 10.1765 20.0741 10.1765V10.1768ZM11.3463 15.6249C11.3463 13.2616 13.2624 11.3455 15.6257 11.3454C17.9891 11.3454 19.9047 13.2615 19.9047 15.6249C19.9047 17.9883 17.9892 19.9036 15.6259 19.9036C13.2625 19.9036 11.3463 17.9883 11.3463 15.6249Z" fill="black"/>
<path id="Shape" d="M15.6258 12.8477C17.1598 12.8477 18.4036 14.0912 18.4036 15.6255C18.4036 17.1595 17.1598 18.4033 15.6258 18.4033C14.0916 18.4033 12.848 17.1595 12.848 15.6255C12.848 14.0912 14.0916 12.8477 15.6258 12.8477Z" fill="black"/>
</g>
</svg>
