<svg width="41" height="40" viewBox="0 0 41 40" fill="none" xmlns="http://www.w3.org/2000/svg">
<g id="carbon:location-filled">
<path id="Vector" d="M20.4 2.5C16.6817 2.5043 13.1169 3.95434 10.4877 6.53203C7.85841 9.10973 6.37937 12.6046 6.37498 16.25C6.37053 19.229 7.36308 22.1272 9.20038 24.5C9.20038 24.5 9.58288 24.9937 9.64536 25.065L20.4 37.5L31.1597 25.0588C31.2158 24.9925 31.5996 24.5 31.5996 24.5L31.6009 24.4963C33.4372 22.1245 34.4293 19.2277 34.425 16.25C34.4206 12.6046 32.9416 9.10973 30.3123 6.53203C27.6831 3.95434 24.1183 2.5043 20.4 2.5ZM20.4 21.25C19.3913 21.25 18.4053 20.9568 17.5666 20.4073C16.7279 19.8579 16.0742 19.077 15.6882 18.1634C15.3022 17.2498 15.2012 16.2445 15.398 15.2745C15.5948 14.3046 16.0805 13.4137 16.7937 12.7145C17.507 12.0152 18.4157 11.539 19.405 11.3461C20.3943 11.1531 21.4198 11.2522 22.3517 11.6306C23.2836 12.009 24.0801 12.6499 24.6405 13.4721C25.2009 14.2944 25.5 15.2611 25.5 16.25C25.4983 17.5756 24.9604 18.8464 24.0044 19.7837C23.0483 20.721 21.7521 21.2483 20.4 21.25Z" fill="black"/>
</g>
</svg>
