<svg width="40" height="40" viewBox="0 0 40 40" fill="none" xmlns="http://www.w3.org/2000/svg">
<g id="bxs:phone-call">
<path id="Vector" d="M33.3333 18.3318H36.6667C36.6667 9.78183 30.2117 3.3335 21.65 3.3335V6.66683C28.42 6.66683 33.3333 11.5718 33.3333 18.3318Z" fill="black"/>
<path id="Vector_2" d="M21.6667 13.3336C25.1717 13.3336 26.6667 14.8286 26.6667 18.3336H30C30 12.9586 27.0417 10.0002 21.6667 10.0002V13.3336ZM27.37 22.4052C27.0498 22.1142 26.6289 21.9589 26.1964 21.9723C25.7638 21.9857 25.3533 22.1666 25.0517 22.4769L21.0633 26.5786C20.1033 26.3952 18.1733 25.7936 16.1867 23.8119C14.2 21.8236 13.5983 19.8886 13.42 18.9352L17.5183 14.9452C17.829 14.6438 18.0102 14.2333 18.0236 13.8006C18.037 13.3679 17.8815 12.947 17.59 12.6269L11.4317 5.85524C11.1401 5.53416 10.7348 5.33941 10.3019 5.31234C9.86906 5.28526 9.44268 5.428 9.11335 5.71024L5.49668 8.8119C5.20853 9.10109 5.03654 9.48599 5.01335 9.89357C4.98835 10.3102 4.51168 20.1802 12.165 27.8369C18.8417 34.5119 27.205 35.0002 29.5083 35.0002C29.845 35.0002 30.0517 34.9902 30.1067 34.9869C30.5142 34.9641 30.8989 34.7913 31.1867 34.5019L34.2867 30.8836C34.5691 30.5544 34.7121 30.1282 34.6854 29.6953C34.6586 29.2624 34.4642 28.8571 34.1433 28.5652L27.37 22.4052Z" fill="black"/>
</g>
</svg>
