<svg width="32" height="32" viewBox="0 0 32 32" fill="none" xmlns="http://www.w3.org/2000/svg">
<g id="Youtube">
<path id="Combined-Shape" fill-rule="evenodd" clip-rule="evenodd" d="M15.625 0C6.99555 0 0 6.99555 0 15.625C0 24.2544 6.99555 31.25 15.625 31.25C24.2544 31.25 31.25 24.2544 31.25 15.625C31.25 6.99555 24.2544 0 15.625 0ZM22.1364 10.2536C22.8536 10.4504 23.4183 11.0302 23.61 11.7665C23.9583 13.1011 23.9583 15.8855 23.9583 15.8855C23.9583 15.8855 23.9583 18.6699 23.61 20.0045C23.4183 20.7409 22.8536 21.3207 22.1364 21.5176C20.8368 21.8751 15.625 21.8751 15.625 21.8751C15.625 21.8751 10.4131 21.8751 9.11342 21.5176C8.39628 21.3207 7.83151 20.7409 7.63984 20.0045C7.29164 18.6699 7.29164 15.8855 7.29164 15.8855C7.29164 15.8855 7.29164 13.1011 7.63984 11.7665C7.83151 11.0302 8.39628 10.4504 9.11342 10.2536C10.4131 9.89596 15.625 9.89596 15.625 9.89596C15.625 9.89596 20.8368 9.89596 22.1364 10.2536Z" fill="black"/>
<path id="Fill-2" d="M14.0625 18.7503V13.542L18.2292 16.1463L14.0625 18.7503Z" fill="black"/>
</g>
</svg>
